<svg xmlns="http://www.w3.org/2000/svg" width="198" height="156" viewBox="0 0 198 156" version="1.1"><path d="M 34.906 49.250 C 34.855 49.388, 34.711 52.313, 34.587 55.750 C 34.421 60.371, 34.706 62, 35.681 62 C 36.638 62, 37 60.214, 37 55.500 C 37 51.833, 36.564 49, 36 49 C 35.450 49, 34.958 49.112, 34.906 49.250 M 48 49.930 C 48 50.442, 49.013 51.005, 50.250 51.180 C 52.290 51.470, 52.480 51.989, 52.282 56.750 C 52.114 60.798, 52.400 62, 53.532 62 C 54.645 62, 55 60.669, 55 56.500 C 55 51.667, 55.242 51, 57 51 C 58.100 51, 59 50.550, 59 50 C 59 49.450, 56.525 49, 53.500 49 C 50.475 49, 48 49.419, 48 49.930 M 83.500 50 C 83.149 50.567, 83.990 51, 85.441 51 C 87.876 51, 88 51.266, 88 56.500 C 88 59.525, 88.450 62, 89 62 C 89.550 62, 90 59.525, 90 56.500 C 90 51.667, 90.242 51, 92 51 C 93.100 51, 94 50.550, 94 50 C 94 49.450, 91.777 49, 89.059 49 C 86.341 49, 83.840 49.450, 83.500 50 M 105 55.500 L 105 62 110 62 C 112.750 62, 115 61.550, 115 61 C 115 60.450, 113.214 60, 111.031 60 C 107.915 60, 107.186 59.678, 107.638 58.500 C 107.966 57.645, 109.458 57, 111.107 57 C 112.698 57, 114 56.550, 114 56 C 114 55.450, 112.467 55, 110.594 55 C 107.680 55, 107.263 54.711, 107.710 53 C 108.105 51.489, 109.074 51, 111.676 51 C 113.716 51, 114.866 50.593, 114.500 50 C 114.160 49.450, 111.884 49, 109.441 49 L 105 49 105 55.500 M 128.099 55.250 C 126.530 58.742, 125.729 61.667, 126.283 61.879 C 126.829 62.088, 127.686 61.525, 128.188 60.629 C 129.416 58.435, 134.627 58.511, 135.875 60.742 C 136.411 61.700, 137.149 62.184, 137.515 61.818 C 138.361 60.973, 133.038 49, 131.817 49 C 131.317 49, 129.644 51.813, 128.099 55.250 M 149.835 55.502 C 149.592 60.217, 149.844 62.004, 150.750 62.002 C 151.526 62.001, 152.002 60.579, 152.007 58.250 L 152.013 54.500 153.881 57.333 C 156.379 61.122, 156.876 61.090, 159.053 57 L 160.916 53.500 160.958 57.750 C 160.981 60.087, 161.450 62, 162 62 C 162.564 62, 163 59.167, 163 55.500 C 163 51.925, 162.633 49, 162.184 49 C 161.735 49, 160.345 50.821, 159.094 53.047 C 156.569 57.540, 155.194 57.296, 152.986 51.967 C 151.093 47.397, 150.202 48.397, 149.835 55.502 M 131 52.859 C 131 53.397, 130.727 54.548, 130.393 55.418 C 129.963 56.538, 130.374 57, 131.799 57 C 133.326 57, 133.685 56.512, 133.286 54.984 C 132.723 52.831, 131 51.229, 131 52.859 M 69 57 C 69 57.550, 70.125 58, 71.500 58 C 72.875 58, 74 57.550, 74 57 C 74 56.450, 72.875 56, 71.500 56 C 70.125 56, 69 56.450, 69 57 M 60 72.878 C 60 73.361, 58.049 77.299, 55.664 81.628 C 39.711 110.591, 26.418 138.818, 27.990 140.390 C 29.824 142.224, 31.997 138.718, 43.525 115.327 C 54.434 93.192, 54.760 92.670, 54.264 98.096 C 53.873 102.369, 54.163 104.319, 55.491 106.346 C 59.253 112.088, 64.112 109.044, 83.998 88.488 C 90.300 81.974, 93.759 79.610, 92.568 82.634 C 92.163 83.660, 90.480 88.550, 88.828 93.500 C 87.176 98.450, 85.170 103.525, 84.371 104.778 C 83.571 106.031, 83.187 107.494, 83.517 108.028 C 83.848 108.563, 83.641 109, 83.059 109 C 82.477 109, 82 109.810, 82 110.800 C 82 111.790, 81.563 113.037, 81.029 113.571 C 80.494 114.106, 79.888 115.433, 79.681 116.521 C 79.475 117.610, 78.754 119.850, 78.079 121.500 C 75.754 127.186, 75.694 133.202, 77.926 136.750 C 79.051 138.537, 80.652 140, 81.485 140 C 83.127 140, 83.539 138.451, 82.129 137.580 C 78.525 135.352, 81.155 124.184, 90.549 101.822 C 93.478 94.849, 96.821 86.081, 97.977 82.338 C 99.961 75.915, 99.982 75.460, 98.349 74.266 C 97.397 73.570, 96.212 73, 95.717 73 C 94.347 73, 90.270 76.404, 82 84.450 C 72.117 94.065, 59.585 104.249, 59.169 103.003 C 58.822 101.967, 60.700 93.396, 63.879 81.505 C 64.907 77.657, 65.532 73.945, 65.267 73.255 C 64.727 71.847, 60 71.509, 60 72.878 M 89.500 78.855 C 88.400 79.839, 85.250 83.083, 82.500 86.065 C 78.388 90.523, 78.200 90.865, 81.441 87.993 C 86.194 83.779, 86.823 83.165, 89.924 79.705 C 92.682 76.628, 92.468 76.201, 89.500 78.855 M 54.405 87.155 C 53.962 87.870, 54.130 88.038, 54.845 87.595 C 55.480 87.203, 56 86.684, 56 86.441 C 56 85.607, 55.117 86.002, 54.405 87.155 M 53 89.500 C 53 89.775, 53.225 90, 53.500 90 C 53.775 90, 54 89.775, 54 89.500 C 54 89.225, 53.775 89, 53.500 89 C 53.225 89, 53 89.225, 53 89.500 M 52 91.500 C 52 91.775, 52.225 92, 52.500 92 C 52.775 92, 53 91.775, 53 91.500 C 53 91.225, 52.775 91, 52.500 91 C 52.225 91, 52 91.225, 52 91.500 M 51 93.500 C 51 93.775, 51.225 94, 51.500 94 C 51.775 94, 52 93.775, 52 93.500 C 52 93.225, 51.775 93, 51.500 93 C 51.225 93, 51 93.225, 51 93.500 M 74 95 C 74 95.550, 74.450 96, 75 96 C 75.550 96, 76 95.550, 76 95 C 76 94.450, 75.550 94, 75 94 C 74.450 94, 74 94.450, 74 95 M 46 103.500 C 46 103.775, 46.225 104, 46.500 104 C 46.775 104, 47 103.775, 47 103.500 C 47 103.225, 46.775 103, 46.500 103 C 46.225 103, 46 103.225, 46 103.500 M 106.441 104.096 C 105.558 105.524, 108.478 108.440, 109.907 107.558 C 110.680 107.080, 110.698 106.303, 109.968 104.939 C 108.807 102.771, 107.459 102.449, 106.441 104.096 M 45 105.500 C 45 105.775, 45.225 106, 45.500 106 C 45.775 106, 46 105.775, 46 105.500 C 46 105.225, 45.775 105, 45.500 105 C 45.225 105, 45 105.225, 45 105.500 M 134.568 111.500 C 132.046 113.425, 129.187 115, 128.214 115 C 127.241 115, 125.480 115.676, 124.301 116.502 C 118.979 120.229, 102.969 128, 100.611 128 C 97.319 128, 97.287 126.330, 100.489 121.612 C 104.291 116.009, 106.146 112.045, 105.474 110.958 C 104.512 109.401, 102.203 111.221, 98.457 116.490 C 92.808 124.435, 94.177 133.041, 101.079 132.978 C 104.152 132.950, 110.220 130.200, 117.541 125.517 C 121.800 122.793, 123.079 122.320, 122.522 123.676 C 120.851 127.747, 120.844 129.112, 122.482 131.613 C 123.936 133.832, 124.715 134.146, 127.608 133.676 C 129.484 133.372, 132.322 132.195, 133.914 131.061 C 137.518 128.495, 138.373 128.467, 137.727 130.935 C 137.449 132, 137.872 133.800, 138.667 134.935 C 142.299 140.120, 154.425 135.191, 166.746 123.522 C 172.329 118.235, 173.991 116.068, 173.473 114.750 C 173.095 113.787, 172.497 113.002, 172.143 113.004 C 171.789 113.007, 169.250 115.072, 166.500 117.595 C 163.750 120.117, 159.004 123.895, 155.954 125.989 C 150.451 129.768, 142.543 132.876, 141.383 131.716 C 141.051 131.384, 142.223 128.149, 143.987 124.526 C 146.525 119.317, 146.949 117.643, 146.015 116.518 C 145.366 115.736, 145.134 114.153, 145.500 113 C 146.342 110.347, 144.443 108, 141.454 108 C 140.189 108, 137.090 109.575, 134.568 111.500 M 42 111.500 C 42 111.775, 42.225 112, 42.500 112 C 42.775 112, 43 111.775, 43 111.500 C 43 111.225, 42.775 111, 42.500 111 C 42.225 111, 42 111.225, 42 111.500 M 137.400 113.828 C 133.654 116.545, 124.301 127.652, 125.109 128.425 C 126.043 129.319, 134.501 124.365, 138.804 120.403 C 143.052 116.491, 143.275 116.076, 141.135 116.040 C 138.843 116.001, 138.821 115.923, 140.408 113.500 C 142.484 110.332, 142.175 110.366, 137.400 113.828 M 163.500 122.634 C 161.300 124.587, 157.813 127.053, 155.750 128.113 C 150.979 130.565, 150.873 131.498, 155.588 129.528 C 159.220 128.010, 165.630 123.356, 167.969 120.538 C 170.285 117.747, 167.571 119.020, 163.500 122.634 M 137 125.500 C 137 125.775, 137.225 126, 137.500 126 C 137.775 126, 138 125.775, 138 125.500 C 138 125.225, 137.775 125, 137.500 125 C 137.225 125, 137 125.225, 137 125.500 M 37.226 148.579 C 38.176 149.570, 39.168 150.166, 39.431 149.903 C 39.694 149.640, 38.917 148.829, 37.705 148.100 C 35.598 146.835, 35.577 146.857, 37.226 148.579 M 97 148.500 C 97 148.775, 97.225 149, 97.500 149 C 97.775 149, 98 148.775, 98 148.500 C 98 148.225, 97.775 148, 97.500 148 C 97.225 148, 97 148.225, 97 148.500 M 93.333 150.667 C 93.700 151.033, 94.300 151.033, 94.667 150.667 C 95.033 150.300, 94.733 150, 94 150 C 93.267 150, 92.967 150.300, 93.333 150.667 M 42 151.500 C 42 151.775, 42.225 152, 42.500 152 C 42.775 152, 43 151.775, 43 151.500 C 43 151.225, 42.775 151, 42.500 151 C 42.225 151, 42 151.225, 42 151.500 M 44 152.500 C 44 152.775, 44.225 153, 44.500 153 C 44.775 153, 45 152.775, 45 152.500 C 45 152.225, 44.775 152, 44.500 152 C 44.225 152, 44 152.225, 44 152.500 M 46 153.500 C 46 153.775, 46.225 154, 46.500 154 C 46.775 154, 47 153.775, 47 153.500 C 47 153.225, 46.775 153, 46.500 153 C 46.225 153, 46 153.225, 46 153.500" stroke="none" fill="#221220" fill-rule="evenodd"/><path d="M 96.474 4.799 C 94.876 8.085, 94.245 8.543, 91.813 8.186 C 89.797 7.890, 89 8.197, 89 9.271 C 89 10.096, 87.875 11.507, 86.500 12.408 C 84.193 13.920, 83.809 13.921, 81.525 12.425 C 79.088 10.828, 78.970 10.889, 73.828 16.401 C 68.469 22.147, 65 23.584, 65 20.059 C 65 16.909, 63.166 16.682, 59.903 19.428 C 58.222 20.843, 56.225 22, 55.464 22 C 54.704 22, 53.295 24.216, 52.333 26.924 C 50.786 31.282, 50.364 31.730, 48.665 30.821 C 47.410 30.149, 46.530 30.135, 46.123 30.780 C 45.338 32.023, 37.855 31.528, 35.094 30.050 C 33.774 29.344, 31.829 29.243, 29.758 29.775 C 27.106 30.456, 26.278 31.345, 25.306 34.556 C 21.961 45.602, 21.802 46.623, 22.844 50.399 C 23.717 53.561, 23.653 54.076, 22.443 53.585 C 17.428 51.552, 17.644 51.472, 18.365 55.082 C 18.741 56.962, 20.386 61.360, 22.021 64.856 C 24.024 69.139, 24.529 71.033, 23.568 70.664 C 18.686 68.791, 15.267 68.983, 9.721 71.440 C 6.543 72.848, 3.281 74, 2.471 74 C 1.662 74, 1 74.684, 1 75.520 C 1 77.404, 5.055 83.888, 7.727 86.275 C 8.957 87.375, 9.550 88.902, 9.286 90.287 C 9.001 91.775, 10.417 94.848, 13.516 99.470 C 19.079 107.766, 20.830 109.388, 26.603 111.592 C 29.021 112.516, 31 113.379, 31 113.510 C 31 113.641, 29.860 115.787, 28.468 118.279 C 25.583 123.440, 22.984 134.465, 23.731 138.372 C 24.458 142.174, 31.412 149, 34.558 149 C 36.340 149, 36.890 148.620, 36.367 147.750 C 35.897 146.968, 36.344 147.050, 37.558 147.967 C 40.535 150.216, 40.637 150.368, 38.698 149.671 C 35.908 148.668, 37.705 150.796, 41.154 152.579 C 42.818 153.440, 44.838 153.892, 45.642 153.584 C 46.446 153.275, 46.859 153.418, 46.561 153.902 C 46.262 154.385, 47.619 155.081, 49.576 155.448 C 53.851 156.250, 61.948 153.820, 64.537 150.959 C 66.713 148.555, 69.118 148.482, 73.300 150.691 C 75.504 151.856, 79.016 152.400, 84.587 152.441 C 92.831 152.501, 96.248 151.475, 100.470 147.670 C 105.880 142.794, 109.241 139.346, 110.080 137.813 C 110.922 136.275, 111.551 136.374, 117.251 138.941 C 124.250 142.093, 138.989 144.577, 144.993 143.617 C 155.287 141.971, 165.402 134.387, 173.160 122.500 C 175.313 119.200, 179.863 114.235, 183.270 111.467 C 186.677 108.699, 190.481 104.925, 191.724 103.082 C 194.399 99.112, 197.661 89.328, 196.647 88.314 C 196.257 87.923, 194.043 88.109, 191.727 88.727 C 189.412 89.345, 187.372 89.705, 187.193 89.526 C 187.015 89.348, 187.396 87.244, 188.041 84.851 C 189.456 79.602, 188.604 70.852, 186.342 67.399 C 184.803 65.051, 184.867 64.541, 187.519 57.953 C 189.061 54.123, 190.027 50.693, 189.665 50.332 C 189.304 49.971, 187.850 50.203, 186.433 50.848 C 184.057 51.931, 183.909 51.861, 184.519 49.939 C 184.923 48.666, 184.593 47.204, 183.668 46.178 C 182.837 45.255, 182.009 42.925, 181.828 41 C 181.542 37.943, 181.120 37.457, 178.500 37.162 C 176.850 36.975, 175.019 36.426, 174.432 35.940 C 173.789 35.408, 172.532 35.639, 171.274 36.521 C 169.350 37.868, 168.913 37.728, 165.756 34.742 C 163.870 32.959, 160.477 30.032, 158.215 28.237 L 154.103 24.973 152.149 27.070 L 150.196 29.167 149.515 26.067 C 148.801 22.819, 143.102 16, 141.101 16 C 140.461 16, 139.681 16.668, 139.368 17.484 C 138.922 18.646, 137.789 18.165, 134.149 15.266 C 131.592 13.230, 128.668 10.733, 127.651 9.717 C 125.976 8.045, 125.639 8.016, 124.094 9.415 C 122.562 10.801, 122.164 10.803, 120.207 9.433 C 119.009 8.593, 117.459 8, 116.764 8.116 C 114.512 8.490, 109.617 6.813, 104.378 3.874 C 101.561 2.293, 99.046 1, 98.789 1 C 98.532 1, 97.490 2.710, 96.474 4.799 M 34.906 49.250 C 34.855 49.388, 34.711 52.313, 34.587 55.750 C 34.421 60.371, 34.706 62, 35.681 62 C 36.638 62, 37 60.214, 37 55.500 C 37 51.833, 36.564 49, 36 49 C 35.450 49, 34.958 49.112, 34.906 49.250 M 48 49.930 C 48 50.442, 49.013 51.005, 50.250 51.180 C 52.290 51.470, 52.480 51.989, 52.282 56.750 C 52.114 60.798, 52.400 62, 53.532 62 C 54.645 62, 55 60.669, 55 56.500 C 55 51.667, 55.242 51, 57 51 C 58.100 51, 59 50.550, 59 50 C 59 49.450, 56.525 49, 53.500 49 C 50.475 49, 48 49.419, 48 49.930 M 83.500 50 C 83.149 50.567, 83.990 51, 85.441 51 C 87.876 51, 88 51.266, 88 56.500 C 88 59.525, 88.450 62, 89 62 C 89.550 62, 90 59.525, 90 56.500 C 90 51.667, 90.242 51, 92 51 C 93.100 51, 94 50.550, 94 50 C 94 49.450, 91.777 49, 89.059 49 C 86.341 49, 83.840 49.450, 83.500 50 M 105 55.500 L 105 62 110 62 C 112.750 62, 115 61.550, 115 61 C 115 60.450, 113.214 60, 111.031 60 C 107.915 60, 107.186 59.678, 107.638 58.500 C 107.966 57.645, 109.458 57, 111.107 57 C 112.698 57, 114 56.550, 114 56 C 114 55.450, 112.467 55, 110.594 55 C 107.680 55, 107.263 54.711, 107.710 53 C 108.105 51.489, 109.074 51, 111.676 51 C 113.716 51, 114.866 50.593, 114.500 50 C 114.160 49.450, 111.884 49, 109.441 49 L 105 49 105 55.500 M 128.099 55.250 C 126.530 58.742, 125.729 61.667, 126.283 61.879 C 126.829 62.088, 127.686 61.525, 128.188 60.629 C 129.416 58.435, 134.627 58.511, 135.875 60.742 C 136.411 61.700, 137.149 62.184, 137.515 61.818 C 138.361 60.973, 133.038 49, 131.817 49 C 131.317 49, 129.644 51.813, 128.099 55.250 M 149.835 55.502 C 149.592 60.217, 149.844 62.004, 150.750 62.002 C 151.526 62.001, 152.002 60.579, 152.007 58.250 L 152.013 54.500 153.881 57.333 C 156.379 61.122, 156.876 61.090, 159.053 57 L 160.916 53.500 160.958 57.750 C 160.981 60.087, 161.450 62, 162 62 C 162.564 62, 163 59.167, 163 55.500 C 163 51.925, 162.633 49, 162.184 49 C 161.735 49, 160.345 50.821, 159.094 53.047 C 156.569 57.540, 155.194 57.296, 152.986 51.967 C 151.093 47.397, 150.202 48.397, 149.835 55.502 M 131 52.859 C 131 53.397, 130.727 54.548, 130.393 55.418 C 129.963 56.538, 130.374 57, 131.799 57 C 133.326 57, 133.685 56.512, 133.286 54.984 C 132.723 52.831, 131 51.229, 131 52.859 M 69 57 C 69 57.550, 70.125 58, 71.500 58 C 72.875 58, 74 57.550, 74 57 C 74 56.450, 72.875 56, 71.500 56 C 70.125 56, 69 56.450, 69 57 M 60 72.878 C 60 73.361, 58.049 77.299, 55.664 81.628 C 39.711 110.591, 26.418 138.818, 27.990 140.390 C 29.824 142.224, 31.997 138.718, 43.525 115.327 C 54.434 93.192, 54.760 92.670, 54.264 98.096 C 53.873 102.369, 54.163 104.319, 55.491 106.346 C 59.253 112.088, 64.112 109.044, 83.998 88.488 C 90.300 81.974, 93.759 79.610, 92.568 82.634 C 92.163 83.660, 90.480 88.550, 88.828 93.500 C 87.176 98.450, 85.170 103.525, 84.371 104.778 C 83.571 106.031, 83.187 107.494, 83.517 108.028 C 83.848 108.563, 83.641 109, 83.059 109 C 82.477 109, 82 109.810, 82 110.800 C 82 111.790, 81.563 113.037, 81.029 113.571 C 80.494 114.106, 79.888 115.433, 79.681 116.521 C 79.475 117.610, 78.754 119.850, 78.079 121.500 C 75.754 127.186, 75.694 133.202, 77.926 136.750 C 79.051 138.537, 80.652 140, 81.485 140 C 83.127 140, 83.539 138.451, 82.129 137.580 C 78.525 135.352, 81.155 124.184, 90.549 101.822 C 93.478 94.849, 96.821 86.081, 97.977 82.338 C 99.961 75.915, 99.982 75.460, 98.349 74.266 C 97.397 73.570, 96.212 73, 95.717 73 C 94.347 73, 90.270 76.404, 82 84.450 C 72.117 94.065, 59.585 104.249, 59.169 103.003 C 58.822 101.967, 60.700 93.396, 63.879 81.505 C 64.907 77.657, 65.532 73.945, 65.267 73.255 C 64.727 71.847, 60 71.509, 60 72.878 M 89.500 78.855 C 88.400 79.839, 85.250 83.083, 82.500 86.065 C 78.388 90.523, 78.200 90.865, 81.441 87.993 C 86.194 83.779, 86.823 83.165, 89.924 79.705 C 92.682 76.628, 92.468 76.201, 89.500 78.855 M 54.405 87.155 C 53.962 87.870, 54.130 88.038, 54.845 87.595 C 55.480 87.203, 56 86.684, 56 86.441 C 56 85.607, 55.117 86.002, 54.405 87.155 M 53 89.500 C 53 89.775, 53.225 90, 53.500 90 C 53.775 90, 54 89.775, 54 89.500 C 54 89.225, 53.775 89, 53.500 89 C 53.225 89, 53 89.225, 53 89.500 M 52 91.500 C 52 91.775, 52.225 92, 52.500 92 C 52.775 92, 53 91.775, 53 91.500 C 53 91.225, 52.775 91, 52.500 91 C 52.225 91, 52 91.225, 52 91.500 M 51 93.500 C 51 93.775, 51.225 94, 51.500 94 C 51.775 94, 52 93.775, 52 93.500 C 52 93.225, 51.775 93, 51.500 93 C 51.225 93, 51 93.225, 51 93.500 M 74 95 C 74 95.550, 74.450 96, 75 96 C 75.550 96, 76 95.550, 76 95 C 76 94.450, 75.550 94, 75 94 C 74.450 94, 74 94.450, 74 95 M 46 103.500 C 46 103.775, 46.225 104, 46.500 104 C 46.775 104, 47 103.775, 47 103.500 C 47 103.225, 46.775 103, 46.500 103 C 46.225 103, 46 103.225, 46 103.500 M 106.441 104.096 C 105.558 105.524, 108.478 108.440, 109.907 107.558 C 110.680 107.080, 110.698 106.303, 109.968 104.939 C 108.807 102.771, 107.459 102.449, 106.441 104.096 M 45 105.500 C 45 105.775, 45.225 106, 45.500 106 C 45.775 106, 46 105.775, 46 105.500 C 46 105.225, 45.775 105, 45.500 105 C 45.225 105, 45 105.225, 45 105.500 M 134.568 111.500 C 132.046 113.425, 129.187 115, 128.214 115 C 127.241 115, 125.480 115.676, 124.301 116.502 C 118.979 120.229, 102.969 128, 100.611 128 C 97.319 128, 97.287 126.330, 100.489 121.612 C 104.291 116.009, 106.146 112.045, 105.474 110.958 C 104.512 109.401, 102.203 111.221, 98.457 116.490 C 92.808 124.435, 94.177 133.041, 101.079 132.978 C 104.152 132.950, 110.220 130.200, 117.541 125.517 C 121.800 122.793, 123.079 122.320, 122.522 123.676 C 120.851 127.747, 120.844 129.112, 122.482 131.613 C 123.936 133.832, 124.715 134.146, 127.608 133.676 C 129.484 133.372, 132.322 132.195, 133.914 131.061 C 137.518 128.495, 138.373 128.467, 137.727 130.935 C 137.449 132, 137.872 133.800, 138.667 134.935 C 142.299 140.120, 154.425 135.191, 166.746 123.522 C 172.329 118.235, 173.991 116.068, 173.473 114.750 C 173.095 113.787, 172.497 113.002, 172.143 113.004 C 171.789 113.007, 169.250 115.072, 166.500 117.595 C 163.750 120.117, 159.004 123.895, 155.954 125.989 C 150.451 129.768, 142.543 132.876, 141.383 131.716 C 141.051 131.384, 142.223 128.149, 143.987 124.526 C 146.525 119.317, 146.949 117.643, 146.015 116.518 C 145.366 115.736, 145.134 114.153, 145.500 113 C 146.342 110.347, 144.443 108, 141.454 108 C 140.189 108, 137.090 109.575, 134.568 111.500 M 42 111.500 C 42 111.775, 42.225 112, 42.500 112 C 42.775 112, 43 111.775, 43 111.500 C 43 111.225, 42.775 111, 42.500 111 C 42.225 111, 42 111.225, 42 111.500 M 137.400 113.828 C 133.654 116.545, 124.301 127.652, 125.109 128.425 C 126.043 129.319, 134.501 124.365, 138.804 120.403 C 143.052 116.491, 143.275 116.076, 141.135 116.040 C 138.843 116.001, 138.821 115.923, 140.408 113.500 C 142.484 110.332, 142.175 110.366, 137.400 113.828 M 163.500 122.634 C 161.300 124.587, 157.813 127.053, 155.750 128.113 C 150.979 130.565, 150.873 131.498, 155.588 129.528 C 159.220 128.010, 165.630 123.356, 167.969 120.538 C 170.285 117.747, 167.571 119.020, 163.500 122.634 M 137 125.500 C 137 125.775, 137.225 126, 137.500 126 C 137.775 126, 138 125.775, 138 125.500 C 138 125.225, 137.775 125, 137.500 125 C 137.225 125, 137 125.225, 137 125.500 M 97 148.500 C 97 148.775, 97.225 149, 97.500 149 C 97.775 149, 98 148.775, 98 148.500 C 98 148.225, 97.775 148, 97.500 148 C 97.225 148, 97 148.225, 97 148.500 M 93.333 150.667 C 93.700 151.033, 94.300 151.033, 94.667 150.667 C 95.033 150.300, 94.733 150, 94 150 C 93.267 150, 92.967 150.300, 93.333 150.667 M 42 151.500 C 42 151.775, 42.225 152, 42.500 152 C 42.775 152, 43 151.775, 43 151.500 C 43 151.225, 42.775 151, 42.500 151 C 42.225 151, 42 151.225, 42 151.500 M 44 152.500 C 44 152.775, 44.225 153, 44.500 153 C 44.775 153, 45 152.775, 45 152.500 C 45 152.225, 44.775 152, 44.500 152 C 44.225 152, 44 152.225, 44 152.500" stroke="none" fill="#e6b5de" fill-rule="evenodd"/></svg>