<svg width="28" height="28" viewBox="0 0 28 28" fill="none" xmlns="http://www.w3.org/2000/svg">
<path d="M11.0024 0.319824V10.2791H0.500671C0.709315 9.54188 0.973597 8.81858 1.29352 8.1231C1.39088 7.91446 1.50216 7.69191 1.61344 7.48326C1.83599 7.07988 2.05855 6.67651 2.32283 6.28704C2.67057 5.75847 3.06004 5.25773 3.47732 4.77089C5.39685 2.55927 8.02576 0.973575 11.0024 0.319824Z" fill="#0D2780"/>
<path d="M11.0024 0.319824V10.2791H0.500671C0.709315 9.54188 0.973597 8.81858 1.29352 8.1231C1.39088 7.91446 1.50216 7.69191 1.61344 7.48326C1.83599 7.07988 2.05855 6.67651 2.32283 6.28704C2.67057 5.75847 3.06004 5.25773 3.47732 4.77089C5.39685 2.55927 8.02576 0.973575 11.0024 0.319824Z" fill="black" fill-opacity="0.2"/>
<path d="M27.4993 10.2791H16.9976V0.319824C19.9742 0.973575 22.6031 2.55927 24.5365 4.7848C24.6896 4.96563 24.8426 5.14645 24.9956 5.32728C25.2877 5.68892 25.5519 6.06448 25.8023 6.45395C26.1501 6.98252 26.4561 7.5389 26.7204 8.1231C27.0264 8.81858 27.2906 9.54188 27.4993 10.2791Z" fill="#0D2780"/>
<path d="M27.4993 10.2791H16.9976V0.319824C19.9742 0.973575 22.6031 2.55927 24.5365 4.7848C24.6896 4.96563 24.8426 5.14645 24.9956 5.32728C25.2877 5.68892 25.5519 6.06448 25.8023 6.45395C26.1501 6.98252 26.4561 7.5389 26.7204 8.1231C27.0264 8.81858 27.2906 9.54188 27.4993 10.2791Z" fill="black" fill-opacity="0.2"/>
<path d="M11.0025 17.7068V27.68C8.02581 27.0262 5.3969 25.4405 3.46347 23.215C3.31046 23.0342 3.15746 22.8533 3.00445 22.6725C2.71235 22.3109 2.44807 21.9353 2.1977 21.5458C1.84996 21.0173 1.54394 20.4609 1.27966 19.8767C0.959742 19.1812 0.69546 18.4579 0.486816 17.7068H11.0025Z" fill="#0D2780"/>
<path d="M11.0025 17.7068V27.68C8.02581 27.0262 5.3969 25.4405 3.46347 23.215C3.31046 23.0342 3.15746 22.8533 3.00445 22.6725C2.71235 22.3109 2.44807 21.9353 2.1977 21.5458C1.84996 21.0173 1.54394 20.4609 1.27966 19.8767C0.959742 19.1812 0.69546 18.4579 0.486816 17.7068H11.0025Z" fill="black" fill-opacity="0.2"/>
<path d="M27.4992 17.7068C27.2905 18.4579 27.0262 19.1812 26.7063 19.8767C26.609 20.0853 26.4977 20.3079 26.3864 20.5165C26.1639 20.9199 25.9413 21.3233 25.677 21.7128C25.3293 22.2413 24.9398 22.7421 24.5225 23.2289C22.5891 25.4405 19.9602 27.0401 16.9835 27.6939V17.7346H27.4992V17.7068Z" fill="#0D2780"/>
<path d="M27.4992 17.7068C27.2905 18.4579 27.0262 19.1812 26.7063 19.8767C26.609 20.0853 26.4977 20.3079 26.3864 20.5165C26.1639 20.9199 25.9413 21.3233 25.677 21.7128C25.3293 22.2413 24.9398 22.7421 24.5225 23.2289C22.5891 25.4405 19.9602 27.0401 16.9835 27.6939V17.7346H27.4992V17.7068Z" fill="black" fill-opacity="0.2"/>
<path d="M26.7064 19.8768C26.609 20.0854 26.4977 20.308 26.3865 20.5166C26.1639 20.92 25.9414 21.3234 25.6771 21.7129C25.3293 22.2414 24.9399 22.7422 24.5226 23.229L16.9836 18.3328L15.7735 17.5539L13.993 16.3994L11.0025 14.4521L10.3348 14.0209L7.21906 11.9622L4.63188 10.2792L1.29358 8.10929C1.39095 7.90065 1.50222 7.67809 1.6135 7.46945C1.83605 7.06607 2.05861 6.66269 2.32289 6.27322C2.67063 5.74466 3.0601 5.24392 3.47738 4.75708L11.0164 9.65325L12.2265 10.4322L14.0069 11.5867L16.9975 13.534L17.6652 13.9652L21.2121 16.2742L23.3681 17.6791L26.7064 19.8768Z" fill="white"/>
<path d="M26.3865 20.5026C26.164 20.906 25.9414 21.3094 25.6772 21.6988L19.5291 17.7068H22.0746L26.3865 20.5026Z" fill="#E65C49"/>
<path d="M8.45703 10.2792H5.91158L1.59961 7.48333C1.82216 7.07995 2.04472 6.67658 2.309 6.28711L8.45703 10.2792Z" fill="#E65C49"/>
<path d="M26.7064 8.12321L23.3681 10.2931L20.781 11.9623L17.6513 13.9931L16.9836 14.4242L13.9931 16.3716L12.2127 17.5261L11.0025 18.305L3.46353 23.2012C3.31052 23.0204 3.15752 22.8395 3.00451 22.6587C2.71241 22.2971 2.44813 21.9215 2.19776 21.532C1.85002 21.0035 1.54401 20.4471 1.27972 19.8629L4.61803 17.693L6.77401 16.2881L10.321 13.9791L10.9886 13.5479L13.9792 11.6006L15.7735 10.4461L16.9836 9.66717L24.5226 4.771C24.6757 4.95182 24.8287 5.13265 24.9817 5.31347C25.2738 5.67512 25.538 6.05068 25.7884 6.44015C26.1362 6.98262 26.4422 7.539 26.7064 8.12321Z" fill="white"/>
<path d="M10.6547 17.7068L3.00445 22.6725C2.71235 22.3109 2.44807 21.9353 2.19769 21.5458L8.09536 17.7068H10.6547Z" fill="#E65C49"/>
<path d="M25.7884 6.45406L19.8907 10.2792H17.3453L24.9816 5.31348C25.2737 5.68904 25.538 6.06459 25.7884 6.45406Z" fill="#E65C49"/>
<path d="M16.9835 0.319921V27.6801C16.594 27.7635 16.1907 27.8331 15.7734 27.8887C15.1892 27.9583 14.5911 28 13.9929 28C13.3809 28 12.7967 27.9583 12.2125 27.8887C11.8091 27.8331 11.4058 27.7635 11.0024 27.6801V0.319921C11.3918 0.236463 11.7952 0.166915 12.2125 0.111277C12.7967 0.0417288 13.3948 0 13.9929 0C14.605 0 15.1892 0.0417288 15.7873 0.111277C16.1907 0.166915 16.594 0.236463 16.9835 0.319921Z" fill="white"/>
<path d="M28 13.9932C28 14.7721 27.9305 15.551 27.8053 16.3021C27.7218 16.7751 27.6244 17.248 27.4993 17.707H0.500745C0.375559 17.248 0.278192 16.7751 0.194734 16.3021C0.0695479 15.551 0 14.786 0 13.9932C0 13.2977 0.0556384 12.63 0.153005 11.9624C0.236463 11.3921 0.34774 10.8218 0.500745 10.2793H27.4993C27.6523 10.8218 27.7635 11.3921 27.847 11.9624C27.9444 12.63 28 13.3116 28 13.9932Z" fill="white"/>
<path d="M28 13.993C28 14.772 27.9305 15.5509 27.8053 16.302H15.7874V27.8748C15.2032 27.9444 14.6051 27.9861 14.007 27.9861C13.3949 27.9861 12.8107 27.9444 12.2265 27.8748V16.302H0.194734C0.0695479 15.5509 0 14.7859 0 13.993C0 13.2976 0.0556384 12.6299 0.153005 11.9622H12.2126V0.111277C12.7968 0.0417288 13.3949 0 13.993 0C14.6051 0 15.1893 0.0417288 15.7874 0.111277V11.9622H27.847C27.9444 12.6299 28 13.3115 28 13.993Z" fill="#E65C49"/>
</svg>