<svg width="28" height="28" viewBox="0 0 28 28" fill="none" xmlns="http://www.w3.org/2000/svg">
<path d="M27.842 14C27.842 21.6392 21.6391 27.8422 13.9999 27.8422C6.36065 27.8422 0.157715 21.6392 0.157715 14C0.157715 6.36077 6.36065 0.157837 13.9999 0.157837C21.6391 0.157837 27.842 6.36077 27.842 14Z" fill="white"/>
<path d="M14 28C6.28185 28 0 21.7182 0 14C0 6.28185 6.28185 0 14 0C21.7182 0 28 6.28185 28 14C28 21.7182 21.7182 28 14 28ZM14 0.315671C6.45547 0.315671 0.315671 6.45547 0.315671 14C0.315671 21.5445 6.45547 27.6843 14 27.6843C21.5445 27.6843 27.6843 21.5445 27.6843 14C27.6843 6.45547 21.5445 0.315671 14 0.315671Z" fill="white"/>
<path d="M20.9135 13.9999C20.9135 17.8195 17.8199 20.9131 13.9845 20.9131C10.1649 20.9131 7.07129 17.8195 7.07129 13.9999C7.07129 10.1803 10.1649 7.08673 13.9845 7.08673C17.8199 7.07095 20.9135 10.1803 20.9135 13.9999Z" fill="#E65C49"/>
</svg>
