<svg width="28" height="28" viewBox="0 0 28 28" fill="none" xmlns="http://www.w3.org/2000/svg">
<path d="M28 14C28 21.7263 21.7263 28 14 28C6.27366 28 0 21.7263 0 14C0 6.27366 6.27366 0 14 0C21.7263 0 28 6.27366 28 14Z" fill="#E65C49"/>
<path d="M10.089 9.08325L11.1266 12.244H14.463L11.7652 14.2075L12.8028 17.3843L10.089 15.4367L7.39116 17.3843L8.42879 14.2075L5.73096 12.244H9.06733L10.089 9.08325Z" fill="#FBD942"/>
<path d="M16.3311 9.33867L17.0813 8.52453L16.5226 7.55075L17.5443 8.0137L18.2946 7.18359L18.1669 8.30104L19.1726 8.74802L18.087 8.98747L17.9753 10.089L17.4166 9.11518L16.3311 9.33867Z" fill="#FBD942"/>
<path d="M19.3799 11.829L20.4015 11.3501L20.2738 10.2487L21.0241 11.0628L22.0298 10.5999L21.4871 11.5736L22.2373 12.3878L21.1518 12.1802L20.6091 13.154L20.4814 12.0366L19.3799 11.829Z" fill="#FBD942"/>
<path d="M16.4425 18.374L17.4801 18.7731L18.1665 17.8951L18.1186 19.0126L19.1563 19.4117L18.0867 19.699L18.0228 20.8165L17.4162 19.8746L16.3467 20.1779L17.0491 19.2999L16.4425 18.374Z" fill="#FBD942"/>
<path d="M19.3638 15.9954L20.4653 15.9635L20.7845 14.8939L21.1517 15.9475L22.2691 15.9156L21.3911 16.5861L21.7743 17.6397L20.8484 17.0171L19.9704 17.6875L20.2737 16.618L19.3638 15.9954Z" fill="#FBD942"/>
</svg>
